<svg xmlns="http://www.w3.org/2000/svg" width="14.128" height="12.715" viewBox="0 0 14.128 12.715">
  <path id="action" d="M16.114,18.715a1.956,1.956,0,0,1-1.263-.433,1.856,1.856,0,0,1-.68-1.051H10.41a2.627,2.627,0,0,1-2.7-2.7,2.627,2.627,0,0,1,2.7-2.7h1.36a1.643,1.643,0,1,0,0-3.285H7.956a1.967,1.967,0,0,1-.689,1.051,1.921,1.921,0,0,1-1.254.433A1.99,1.99,0,0,1,4,8.013,1.99,1.99,0,0,1,6.013,6a1.921,1.921,0,0,1,1.254.433,1.967,1.967,0,0,1,.689,1.051H11.77a2.627,2.627,0,0,1,2.7,2.7,2.627,2.627,0,0,1-2.7,2.7H10.41a1.643,1.643,0,1,0,0,3.285h3.761a1.967,1.967,0,0,1,.689-1.051,1.921,1.921,0,0,1,1.254-.433,2.013,2.013,0,1,1,0,4.026ZM6.013,8.967a.935.935,0,1,0-.68-.274A.923.923,0,0,0,6.013,8.967Z" transform="translate(-4 -6)" fill="#171d3c"/>
</svg>
