<svg xmlns="http://www.w3.org/2000/svg" width="28.146" height="28.143" viewBox="0 0 28.146 28.143">
  <g id="asterisk-circle" transform="translate(261.778 403.918) rotate(-39)">
    <path id="Path_490" data-name="Path 490" d="M51.547-468.79a10.053,10.053,0,0,0-7.7,5.543,9.982,9.982,0,0,0,0,8.784A10.012,10.012,0,0,0,51.8-448.9a11.663,11.663,0,0,0,2.884-.113,10.053,10.053,0,0,0,7.638-6.637,10.067,10.067,0,0,0,0-6.416,10.059,10.059,0,0,0-8.38-6.75A14.074,14.074,0,0,0,51.547-468.79Zm1.945,1.949a8.01,8.01,0,0,1,7.332,7.4,8.04,8.04,0,0,1-3.593,7.285,7.99,7.99,0,0,1-8.854-.056,8.009,8.009,0,0,1-3.382-8.272,8.065,8.065,0,0,1,6.228-6.219A7.389,7.389,0,0,1,53.491-466.84Z" transform="translate(0 0)" fill="#c4c0c0"/>
    <path id="Path_491" data-name="Path 491" d="M153.077-350.771a1.455,1.455,0,0,0-.73.843c-.138.516-.063.711.812,2.24l.824,1.428-1.743.031a6.017,6.017,0,0,0-1.931.138,1.364,1.364,0,0,0,0,2.365,6.016,6.016,0,0,0,1.931.138l1.743.031-.824,1.428a7.48,7.48,0,0,0-.849,1.7,1.325,1.325,0,0,0,1.46,1.485c.623-.05.768-.2,1.68-1.78a11.864,11.864,0,0,1,.868-1.384,11.868,11.868,0,0,1,.868,1.384c.912,1.579,1.057,1.73,1.68,1.78a1.325,1.325,0,0,0,1.46-1.485,7.481,7.481,0,0,0-.849-1.7l-.824-1.428,1.743-.031c1.868-.031,1.944-.044,2.252-.39a1.363,1.363,0,0,0-.321-2.114,6.017,6.017,0,0,0-1.931-.138l-1.743-.031.824-1.428a7.481,7.481,0,0,0,.849-1.7,1.325,1.325,0,0,0-1.46-1.485c-.623.05-.768.2-1.68,1.78a11.866,11.866,0,0,1-.868,1.384,11.862,11.862,0,0,1-.868-1.384c-.931-1.611-1.057-1.743-1.73-1.774A1.176,1.176,0,0,0,153.077-350.771Z" transform="translate(-103.48 -113.948)" fill="#c4c0c0"/>
  </g>
</svg>
