<svg xmlns="http://www.w3.org/2000/svg" width="15" height="15" viewBox="0 0 15 15">
  <path id="cancel_with_shaded_circle" data-name="cancel with shaded circle" d="M11.5,40a7.217,7.217,0,0,1-5.289-2.211,7.434,7.434,0,0,1,0-10.579A7.217,7.217,0,0,1,11.5,25a7.217,7.217,0,0,1,5.289,2.211,7.434,7.434,0,0,1,0,10.579A7.217,7.217,0,0,1,11.5,40ZM8.776,36.211,11.5,33.487l2.684,2.684.908-.908-2.724-2.724,2.8-2.8-.908-.908L11.5,31.592,8.737,28.829l-.908.908L10.592,32.5,7.829,35.263Z" transform="translate(-4 -25)" fill="#ed4e60"/>
</svg>
