<svg id="clients" xmlns="http://www.w3.org/2000/svg" width="24" height="24" viewBox="0 0 24 24">
  <g id="Group_4063" data-name="Group 4063">
    <rect id="Rectangle_743" data-name="Rectangle 743" width="24" height="24" fill="none"/>
    <rect id="Rectangle_744" data-name="Rectangle 744" width="24" height="24" fill="none"/>
  </g>
  <g id="Group_4069" data-name="Group 4069">
    <g id="Group_4068" data-name="Group 4068">
      <g id="Group_4064" data-name="Group 4064">
        <path id="Path_427" data-name="Path 427" d="M16.67,13.13A4.651,4.651,0,0,1,19,17v3h3a1,1,0,0,0,1-1V17C23,14.82,19.43,13.53,16.67,13.13Z" fill="#171d3c" fill-rule="evenodd"/>
      </g>
      <g id="Group_4065" data-name="Group 4065">
        <circle id="Ellipse_1" data-name="Ellipse 1" cx="4" cy="4" r="4" transform="translate(5 4)" fill="#171d3c"/>
      </g>
      <g id="Group_4066" data-name="Group 4066">
        <path id="Path_428" data-name="Path 428" d="M15,12a4,4,0,0,0,0-8,4.178,4.178,0,0,0-1.33.24,5.98,5.98,0,0,1,0,7.52A4.178,4.178,0,0,0,15,12Z" fill="#171d3c" fill-rule="evenodd"/>
      </g>
      <g id="Group_4067" data-name="Group 4067">
        <path id="Path_429" data-name="Path 429" d="M9,13c-2.67,0-8,1.34-8,4v2a1,1,0,0,0,1,1H16a1,1,0,0,0,1-1V17C17,14.34,11.67,13,9,13Z" fill="#171d3c" fill-rule="evenodd"/>
      </g>
    </g>
  </g>
</svg>
