<svg width="25" height="24" viewBox="0 0 25 24" fill="none" xmlns="http://www.w3.org/2000/svg">
<path fill-rule="evenodd" clip-rule="evenodd" d="M7.25 11.75C7.25 8.98858 9.48858 6.75 12.25 6.75C13.5761 6.75 14.8479 7.27678 15.7855 8.21447C16.7232 9.15215 17.25 10.4239 17.25 11.75C17.25 14.5114 15.0114 16.75 12.25 16.75C9.48858 16.75 7.25 14.5114 7.25 11.75ZM9.01642 13.0894C9.55815 14.3973 10.8344 15.25 12.25 15.25C14.183 15.25 15.75 13.683 15.75 11.75C15.75 10.3344 14.8973 9.05816 13.5894 8.51642C12.2815 7.97469 10.7761 8.27413 9.77512 9.27513C8.77413 10.2761 8.47469 11.7815 9.01642 13.0894Z" fill="#222222"/>
<path d="M12.25 5.5C12.662 5.49461 12.9946 5.16196 13 4.75V1.75C13 1.33579 12.6642 1 12.25 1C11.8358 1 11.5 1.33579 11.5 1.75V4.75C11.5054 5.16196 11.838 5.49461 12.25 5.5Z" fill="#222222"/>
<path d="M12.25 18C11.838 18.0054 11.5054 18.338 11.5 18.75V21.75C11.5 22.1642 11.8358 22.5 12.25 22.5C12.6642 22.5 13 22.1642 13 21.75V18.75C12.9946 18.338 12.662 18.0054 12.25 18Z" fill="#222222"/>
<path d="M6.76998 7.32998C7.0628 7.62244 7.53717 7.62244 7.82998 7.32998C8.12244 7.03717 8.12244 6.5628 7.82998 6.26998L5.70998 4.14998C5.52301 3.94933 5.24143 3.86673 4.97569 3.9346C4.70996 4.00246 4.50246 4.20996 4.4346 4.47569C4.36673 4.74143 4.44933 5.02301 4.64998 5.20998L6.76998 7.32998Z" fill="#222222"/>
<path d="M17.73 16.17C17.4345 15.8947 16.974 15.9028 16.6884 16.1884C16.4027 16.474 16.3946 16.9345 16.67 17.23L18.79 19.35C18.9299 19.4917 19.1209 19.571 19.32 19.57C19.5193 19.5721 19.7108 19.4927 19.85 19.35C20.1424 19.0572 20.1424 18.5829 19.85 18.29L17.73 16.17Z" fill="#222222"/>
<path d="M6 11.75C5.99461 11.338 5.66196 11.0054 5.25 11H2.25C1.83579 11 1.5 11.3358 1.5 11.75C1.5 12.1642 1.83579 12.5 2.25 12.5H5.25C5.66196 12.4946 5.99461 12.162 6 11.75Z" fill="#222222"/>
<path d="M22.25 11H19.25C18.8358 11 18.5 11.3358 18.5 11.75C18.5 12.1642 18.8358 12.5 19.25 12.5H22.25C22.6642 12.5 23 12.1642 23 11.75C23 11.3358 22.6642 11 22.25 11Z" fill="#222222"/>
<path d="M6.77 16.17L4.65 18.29C4.35755 18.5829 4.35755 19.0572 4.65 19.35C4.78923 19.4927 4.98071 19.5721 5.18 19.57C5.37907 19.571 5.57012 19.4917 5.71 19.35L7.83 17.23C8.10536 16.9345 8.09724 16.474 7.81163 16.1884C7.52601 15.9028 7.06551 15.8947 6.77 16.17Z" fill="#222222"/>
<path d="M17.25 7.54998C17.4491 7.55092 17.6401 7.47162 17.78 7.32998L19.85 5.20998C20.0507 5.02301 20.1333 4.74143 20.0654 4.47569C19.9975 4.20996 19.79 4.00246 19.5243 3.9346C19.2586 3.86673 18.977 3.94933 18.79 4.14998L16.67 6.26998C16.3776 6.5628 16.3776 7.03717 16.67 7.32998C16.8218 7.48472 17.0338 7.56513 17.25 7.54998Z" fill="#222222"/>
</svg>
