<svg xmlns="http://www.w3.org/2000/svg" width="15" height="15" viewBox="0 0 15 15">
  <g id="quiz" transform="translate(0.5 0.5)">
    <g id="Group_4075" data-name="Group 4075">
      <path id="Path_432" data-name="Path 432" d="M0,0H14V14H0Z" fill="none"/>
    </g>
    <g id="Group_4077" data-name="Group 4077" transform="translate(-0.5 -0.5)">
      <g id="Group_4076" data-name="Group 4076">
        <path id="Path_433" data-name="Path 433" d="M16.063,19.125H3.875V6.938A.938.938,0,0,0,2,6.938V19.125A1.881,1.881,0,0,0,3.875,21H16.063a.938.938,0,0,0,0-1.875Z" transform="translate(-2 -6)" fill="#171d3c"/>
        <path id="Path_434" data-name="Path 434" d="M19.125,2H7.875A1.881,1.881,0,0,0,6,3.875v11.25A1.881,1.881,0,0,0,7.875,17h11.25A1.881,1.881,0,0,0,21,15.125V3.875A1.881,1.881,0,0,0,19.125,2ZM13.509,14.188a.98.98,0,1,1,0-1.959.957.957,0,0,1,.975.975A.976.976,0,0,1,13.509,14.188ZM15.853,8.4c-.591.872-1.153,1.134-1.462,1.7a1.1,1.1,0,0,0-.15.459.71.71,0,0,1-.7.638h-.028a.707.707,0,0,1-.7-.769,1.9,1.9,0,0,1,.234-.787c.384-.684,1.106-1.088,1.528-1.688A1.157,1.157,0,0,0,13.5,6.134a1.365,1.365,0,0,0-1.181.656.674.674,0,0,1-.834.234h0a.682.682,0,0,1-.319-1,2.762,2.762,0,0,1,2.325-1.209,2.652,2.652,0,0,1,2.353,1.181A2.351,2.351,0,0,1,15.853,8.4Z" transform="translate(-6 -2)" fill="#171d3c"/>
      </g>
    </g>
  </g>
</svg>
