<svg width="23" height="22" viewBox="0 0 23 22" fill="none" xmlns="http://www.w3.org/2000/svg">
<path d="M11.4988 20.5467C11.2683 20.4114 10.9372 20.2117 10.5336 19.9533C9.71608 19.4299 8.60601 18.6687 7.43644 17.7186C5.07133 15.7973 2.57251 13.1907 1.64192 10.2948C0.48626 6.6863 1.87338 2.75974 5.44084 1.61049L5.4412 1.61037C6.26772 1.34365 7.19308 1.49354 8.19074 1.92934C9.18726 2.36465 10.1652 3.04554 11.0492 3.71049C11.3191 3.91358 11.6915 3.91111 11.9588 3.70448C12.7869 3.06419 13.763 2.38412 14.7683 1.94499C15.7795 1.50332 16.7252 1.34667 17.5482 1.61066C21.1167 2.7606 22.5111 6.68838 21.3569 10.2952L21.3557 10.2988C20.4575 13.1548 17.9624 15.7598 15.587 17.692C14.4132 18.6467 13.2969 19.4148 12.4741 19.9441C12.066 20.2065 11.7312 20.4095 11.4988 20.5467ZM11.8587 20.7525C11.8587 20.7525 11.8588 20.7525 11.8587 20.7525L11.8587 20.7525Z" stroke="#222222" stroke-width="1.5" stroke-linecap="round" stroke-linejoin="round"/>
</svg>
