<svg width="23" height="22" viewBox="0 0 23 22" fill="none" xmlns="http://www.w3.org/2000/svg">
<path d="M6.05613 9.96736C7.083 9.94462 8.07809 9.63317 8.60014 9.11163C8.60015 9.11163 8.60015 9.11162 8.60016 9.11161M6.05613 9.96736L1.54146 2.00362C3.97048 2.03574 7.09309 2.31158 8.63545 3.85399C9.88749 5.10598 9.70449 8.078 8.6355 9.14699L8.60016 9.11161M6.05613 9.96736C5.0297 9.99009 3.99014 9.72391 3.37786 9.11163C2.6116 8.3454 2.15872 7.17985 1.89445 5.89604C1.63409 4.63127 1.55806 3.25828 1.54209 2.05363M6.05613 9.96736L1.54209 2.05363M8.60016 9.11161C9.12167 8.59009 9.43314 7.59501 9.45587 6.56801C9.47859 5.54144 9.2124 4.50162 8.6001 3.88935C7.83386 3.12309 6.66832 2.67022 5.38451 2.40596C4.11973 2.14562 2.74675 2.0696 1.54209 2.05363M8.60016 9.11161L1.54209 2.05363M9.37782 3.11062C8.4055 2.13881 6.97171 1.59968 5.45294 1.3028C3.93327 1.00574 2.32193 0.95 0.988481 0.95C0.684872 0.95 0.438464 1.19635 0.438464 1.49997C0.438464 2.83341 0.493955 4.44475 0.790891 5.96443C1.08765 7.48321 1.62678 8.91702 2.5991 9.88936C3.42358 10.7138 4.68333 11.079 5.92546 11.079C7.27454 11.079 8.61832 10.6479 9.37782 9.88838C10.1064 9.15977 10.5328 7.89256 10.5658 6.59903C10.5989 5.305 10.2388 3.97108 9.37782 3.11062Z" fill="#222222" stroke="#222222" stroke-width="0.1"/>
<path d="M13.622 5.08865C12.7611 5.94911 12.4009 7.28303 12.434 8.57705C12.4671 9.87059 12.8934 11.1378 13.622 11.8664L13.622 11.8664C14.3815 12.6249 15.7243 13.0561 17.0734 13.0561C18.3155 13.0561 19.5743 12.6919 20.4007 11.8675L20.4008 11.8674C21.3726 10.8951 21.9117 9.46132 22.2086 7.94255C22.5056 6.42287 22.5614 4.81152 22.5614 3.47804C22.5614 3.17443 22.315 2.92803 22.0114 2.92803C20.678 2.92803 19.0666 2.98352 17.5469 3.28045C16.0282 3.57721 14.5944 4.11634 13.622 5.08865ZM13.622 5.08865L13.6574 5.12402L13.622 5.08865ZM19.6211 11.0887L19.6211 11.0887C19.0088 11.701 17.969 11.9671 16.9424 11.9444C15.9154 11.9217 14.9203 11.6102 14.3988 11.0887C13.8772 10.5672 13.5658 9.57206 13.543 8.54505C13.5203 7.51848 13.7865 6.47867 14.3988 5.86639C15.165 5.10013 16.3306 4.64727 17.6144 4.383C18.8791 4.12266 20.2521 4.04664 21.4568 4.03067C21.4408 5.23581 21.3648 6.60904 21.1045 7.87383C20.8402 9.15764 20.3873 10.3229 19.6211 11.0887Z" fill="#222222" stroke="#222222" stroke-width="0.1"/>
<path d="M17.6745 7.03966L17.6743 7.03974C13.9117 8.80872 12.0195 11.8635 11.1335 15.0263C10.593 11.7131 9.58248 9.53074 8.54081 8.0634C7.47556 6.56284 6.37962 5.81282 5.72863 5.36731L5.7278 5.36674C5.72779 5.36673 5.72778 5.36673 5.72777 5.36672C5.69843 5.34662 5.67052 5.32765 5.64409 5.30969C5.52164 5.22649 5.43092 5.16484 5.37677 5.1115C5.16224 4.8971 4.81366 4.89714 4.59918 5.11163C4.38465 5.32615 4.38465 5.67483 4.59918 5.88936L4.59935 5.88953C4.70218 5.99134 4.87722 6.11691 5.10731 6.27426L5.10731 6.27426C5.83682 6.77307 7.16747 7.68317 8.31715 9.78897C9.46737 11.8958 10.4385 15.2035 10.4385 20.5C10.4385 20.8036 10.6849 21.0501 10.9885 21.0501C11.2921 21.0501 11.5386 20.8037 11.5386 20.5011C11.5386 16.2212 12.6884 10.5994 18.1428 8.03629L18.1716 8.02279V8.02207L18.1835 8.01632L18.2112 8.00322L18.2204 7.99892L18.2229 7.99772L18.2236 7.99741L18.2238 7.99733L18.2238 7.99731L18.2238 7.9973L18.2026 7.95204L18.2238 7.9973L18.224 7.99722C18.5032 7.86487 18.5729 7.55399 18.4458 7.28473C18.3137 7.00371 17.943 6.91458 17.6745 7.03966Z" fill="#222222" stroke="#222222" stroke-width="0.1"/>
</svg>
