<svg id="content-group" xmlns="http://www.w3.org/2000/svg" width="25" height="25" viewBox="0 0 25 25">
  <path id="Path_472" data-name="Path 472" d="M0,0H25V25H0Z" fill="none"/>
  <path id="Path_473" data-name="Path 473" d="M12.5,2A10.5,10.5,0,1,0,23,12.5,10.5,10.5,0,0,0,12.5,2ZM8.3,18.275a2.625,2.625,0,1,1,2.625-2.625A2.626,2.626,0,0,1,8.3,18.275ZM9.875,8.3A2.625,2.625,0,1,1,12.5,10.925,2.626,2.626,0,0,1,9.875,8.3ZM16.7,18.275a2.625,2.625,0,1,1,2.625-2.625A2.626,2.626,0,0,1,16.7,18.275Z" fill="#c4c0c0"/>
</svg>
