<svg xmlns="http://www.w3.org/2000/svg" width="19.3" height="32" viewBox="0 0 19.3 32">
  <path id="drag-n-drop" d="M11.3,40a3.3,3.3,0,1,1,0-6.6,3.3,3.3,0,1,1,0,6.6ZM24,40a3.245,3.245,0,1,1,2.35-.95A3.192,3.192,0,0,1,24,40ZM11.3,27.3a3.3,3.3,0,1,1,0-6.6,3.3,3.3,0,1,1,0,6.6Zm12.7,0a3.245,3.245,0,1,1,2.35-.95A3.192,3.192,0,0,1,24,27.3ZM11.3,14.6A3.245,3.245,0,0,1,8,11.3,3.245,3.245,0,0,1,11.3,8a3.245,3.245,0,0,1,3.3,3.3,3.245,3.245,0,0,1-3.3,3.3Zm12.7,0a3.245,3.245,0,0,1-3.3-3.3,3.3,3.3,0,1,1,6.6,0A3.245,3.245,0,0,1,24,14.6Z" transform="translate(-8 -8)" fill="#fff"/>
</svg>
