<svg id="replace" xmlns="http://www.w3.org/2000/svg" width="14.029" height="14.029" viewBox="0 0 14.029 14.029">
  <path id="Path_412" data-name="Path 412" d="M0,0H14.029V14.029H0Z" fill="none"/>
  <path id="Path_413" data-name="Path 413" d="M8.676,4.216V5.262a.289.289,0,0,0,.5.2L10.8,3.836a.289.289,0,0,0,0-.415L9.173,1.79a.292.292,0,0,0-.5.21V3.047A4.675,4.675,0,0,0,4,7.723a4.576,4.576,0,0,0,.333,1.724.586.586,0,0,0,.959.2.562.562,0,0,0,.134-.608,3.4,3.4,0,0,1-.257-1.315A3.51,3.51,0,0,1,8.676,4.216ZM12.061,5.8a.564.564,0,0,0-.134.608,3.5,3.5,0,0,1-3.25,4.823V10.184a.289.289,0,0,0-.5-.2L6.549,11.61a.289.289,0,0,0,0,.415L8.18,13.656a.292.292,0,0,0,.5-.2V12.4a4.675,4.675,0,0,0,4.676-4.676A4.576,4.576,0,0,0,13.02,6a.586.586,0,0,0-.959-.2Z" transform="translate(-1.662 -0.708)" fill="#171d3c"/>
</svg>
