<svg id="delete" xmlns="http://www.w3.org/2000/svg" width="26" height="26" viewBox="0 0 26 26">
  <path id="Path_436" data-name="Path 436" d="M0,0H26V26H0Z" fill="none"/>
  <path id="Path_437" data-name="Path 437" d="M6.083,20.333A2.173,2.173,0,0,0,8.25,22.5h8.667a2.173,2.173,0,0,0,2.167-2.167V9.5a2.173,2.173,0,0,0-2.167-2.167H8.25A2.173,2.173,0,0,0,6.083,9.5Zm13-16.25H16.375l-.769-.769A1.093,1.093,0,0,0,14.847,3H10.319a1.093,1.093,0,0,0-.758.314l-.769.769H6.083a1.083,1.083,0,1,0,0,2.167h13a1.083,1.083,0,1,0,0-2.167Z" transform="translate(0.417 0.25)" fill="#171d3c"/>
</svg>
