<svg id="cloud-storage-uploading-option-icon" xmlns="http://www.w3.org/2000/svg" width="43.481" height="31.886" viewBox="0 0 43.481 31.886">
  <path id="Path_16" data-name="Path 16" d="M41.589,90.879a8.571,8.571,0,0,0-4.835-3.068,5.788,5.788,0,0,0-4.869-8.922,5.535,5.535,0,0,0-3.759,1.4,11.607,11.607,0,0,0-10.734-7.2,11.172,11.172,0,0,0-8.2,3.4,11.169,11.169,0,0,0-3.4,8.2q0,.294.045.974A10.127,10.127,0,0,0,0,94.832,9.771,9.771,0,0,0,2.978,102a9.769,9.769,0,0,0,7.167,2.978H34.785a8.686,8.686,0,0,0,6.8-14.1Zm-12.818-.611a.7.7,0,0,1-.509.215H23.19v7.972a.734.734,0,0,1-.724.724H18.116a.735.735,0,0,1-.725-.724V90.483H12.319a.7.7,0,0,1-.724-.724.851.851,0,0,1,.226-.544l7.949-7.949a.767.767,0,0,1,1.042,0l7.972,7.971a.7.7,0,0,1,.2.521A.7.7,0,0,1,28.771,90.268Z" transform="translate(0 -73.091)" fill="#4a4a4a"/>
</svg>
