<svg xmlns="http://www.w3.org/2000/svg" width="17.29" height="20.171" viewBox="0 0 17.29 20.171">
  <g id="delete" transform="translate(0 0.001)">
    <g id="Group_121" data-name="Group 121" transform="translate(0 0)">
      <g id="actions" transform="translate(0 0)">
        <path id="delete_icon" data-name="delete icon" d="M4.064,20.17a.913.913,0,0,1-.866-.784L1.187,4.482H1a1,1,0,0,1-1-1v-.24a1,1,0,0,1,1-1H6.171L6.355.949A1.2,1.2,0,0,1,7.57,0H9.729a1.2,1.2,0,0,1,1.209.949l.175,1.292H16.29a1,1,0,0,1,1,1v.24a1,1,0,0,1-1,1H16.1l-2.038,14.9a.916.916,0,0,1-.868.784Zm.8-2.242h7.566l1.62-13.446H3.241Zm5.767-1.676-.472-.045a.5.5,0,0,1-.43-.546L10.47,6.62a.482.482,0,0,1,.513-.459l.472.045a.494.494,0,0,1,.43.544l-.743,9.043a.486.486,0,0,1-.471.461Zm-4.482-.459L5.4,6.75a.493.493,0,0,1,.43-.544l.472-.045a.482.482,0,0,1,.513.459l.743,9.041a.5.5,0,0,1-.43.546l-.472.045-.042,0A.487.487,0,0,1,6.147,15.793Z" transform="translate(0 0)" fill="#c4c0c0"/>
      </g>
    </g>
  </g>
</svg>
